<?xml version="1.0" encoding="UTF-8" ?>
<!DOCTYPE svg PUBLIC "-//W3C//DTD SVG 1.1//EN" "http://www.w3.org/Graphics/SVG/1.1/DTD/svg11.dtd">
<svg width="115px" height="44px" viewBox="0 0 230 88" version="1.1" xmlns="http://www.w3.org/2000/svg">
<g id="#3172b9ff">
<path fill="#3172b9" opacity="1.00" d=" M 77.70 0.00 L 82.11 0.00 C 92.17 0.80 101.21 8.13 104.28 17.70 C 106.04 23.49 105.90 29.91 103.61 35.54 C 99.67 45.14 89.57 52.03 79.08 51.39 C 65.82 51.33 54.13 39.19 54.45 25.95 C 53.91 12.96 64.81 1.03 77.70 0.00 M 73.40 7.67 C 65.65 10.52 60.20 18.73 61.00 27.02 C 61.37 36.71 70.26 45.21 80.00 44.88 C 89.71 45.18 98.56 36.70 98.92 27.05 C 99.65 19.45 95.19 11.90 88.43 8.50 C 83.82 6.17 78.25 5.99 73.40 7.67 Z" />
<path fill="#3172b9" opacity="1.00" d=" M 207.44 0.00 L 208.85 0.00 C 215.53 0.51 221.55 3.80 226.49 8.17 C 224.90 9.63 223.31 11.10 221.72 12.57 C 218.48 10.13 215.02 7.68 210.92 7.00 C 200.42 4.73 189.46 13.38 188.85 24.01 C 187.52 34.45 196.41 44.79 206.95 44.86 C 212.51 45.24 217.53 42.36 221.71 39.00 C 223.30 40.45 224.90 41.89 226.49 43.34 C 221.13 48.06 214.36 51.73 207.01 51.39 C 196.87 51.39 187.46 44.36 183.89 35.00 C 180.48 26.01 182.41 15.08 189.21 8.16 C 193.81 3.02 200.58 0.20 207.44 0.00 Z" />
<path fill="#3172b9" opacity="1.00" d=" M 0.00 0.67 C 2.16 0.67 4.31 0.67 6.47 0.67 C 6.48 15.23 6.46 29.78 6.48 44.34 C 12.41 44.33 18.35 44.33 24.29 44.34 C 24.29 46.51 24.29 48.69 24.30 50.86 C 16.20 50.87 8.10 50.86 0.00 50.87 L 0.00 0.67 Z" />
<path fill="#3172b9" opacity="1.00" d=" M 35.59 0.67 C 37.73 0.67 39.86 0.67 42.00 0.67 C 42.00 17.40 42.00 34.13 42.00 50.87 C 39.86 50.87 37.73 50.86 35.59 50.87 C 35.59 34.13 35.59 17.40 35.59 0.67 Z" />
<path fill="#3172b9" opacity="1.00" d=" M 117.29 50.86 C 117.31 34.13 117.28 17.40 117.31 0.66 C 119.26 0.67 121.21 0.67 123.17 0.67 C 130.04 12.61 136.88 24.58 143.76 36.52 C 143.78 24.57 143.76 12.62 143.77 0.67 C 145.92 0.67 148.08 0.67 150.23 0.67 C 150.23 17.41 150.24 34.14 150.23 50.88 C 148.33 50.86 146.43 50.85 144.53 50.84 C 137.63 38.73 130.66 26.66 123.71 14.59 C 123.69 26.68 123.71 38.77 123.71 50.86 C 121.57 50.86 119.43 50.86 117.29 50.86 Z" />
<path fill="#3172b9" opacity="1.00" d=" M 163.41 50.86 C 163.42 34.13 163.40 17.40 163.42 0.66 C 165.55 0.67 167.69 0.67 169.82 0.67 C 169.82 17.40 169.82 34.13 169.82 50.87 C 167.68 50.86 165.55 50.86 163.41 50.86 Z" />
<path fill="#3172b9" opacity="1.00" d=" M 148.76 67.17 C 149.78 67.74 150.08 68.78 149.94 69.91 C 149.96 74.46 150.02 79.03 149.81 83.58 C 149.56 83.32 149.07 82.80 148.82 82.54 C 148.42 77.44 148.66 72.28 148.76 67.17 Z" />
<path fill="#3172b9" opacity="1.00" d=" M 182.58 67.10 C 183.55 67.72 183.91 68.72 183.76 69.86 C 183.83 74.26 183.73 78.66 183.76 83.07 C 183.43 83.06 182.75 83.06 182.41 83.06 C 182.48 77.74 182.25 72.41 182.58 67.10 Z" />
<path fill="#3172b9" opacity="1.00" d=" M 104.62 68.05 C 104.91 68.31 105.48 68.83 105.77 69.10 C 106.19 73.29 105.83 77.52 105.94 81.73 C 108.17 81.73 110.39 81.73 112.62 81.73 L 112.66 83.06 C 109.93 83.06 107.20 83.06 104.47 83.06 C 104.52 78.06 104.34 73.05 104.62 68.05 Z" />
<path fill="#3172b9" opacity="1.00" d=" M 158.73 73.05 C 157.54 68.17 166.20 66.18 167.27 70.91 C 165.09 70.10 161.50 68.37 160.33 71.49 C 159.73 75.92 166.92 74.44 167.54 78.40 C 168.11 80.72 166.22 82.98 163.96 83.33 C 161.95 83.87 160.15 82.61 158.38 81.91 L 159.07 80.45 C 161.05 82.02 165.01 83.17 166.01 79.95 C 166.32 75.58 159.15 77.20 158.73 73.05 Z" />
<path fill="#3172b9" opacity="1.00" d=" M 205.18 68.94 C 206.86 68.54 207.38 69.12 206.73 70.68 C 205.05 71.07 204.53 70.49 205.18 68.94 Z" />
<path fill="#3172b9" opacity="1.00" d=" M 199.33 70.23 C 199.98 71.13 200.45 72.13 200.73 73.22 C 201.77 73.53 202.78 73.93 203.74 74.43 C 202.90 74.53 201.23 74.72 200.39 74.82 C 200.64 77.80 199.10 82.85 203.81 82.58 C 202.44 83.08 200.71 83.88 199.53 82.54 C 198.67 80.07 199.17 77.35 199.04 74.78 C 198.53 74.74 197.50 74.68 196.98 74.64 C 196.99 74.38 197.01 73.85 197.02 73.58 C 197.51 73.56 198.49 73.52 198.98 73.50 C 199.06 72.69 199.24 71.05 199.33 70.23 Z" />
<path fill="#3172b9" opacity="1.00" d=" M 115.07 81.90 C 111.93 78.94 114.36 72.72 118.84 73.29 C 121.73 73.32 122.89 76.22 123.25 78.64 C 120.39 78.66 117.54 78.65 114.68 78.75 C 115.62 80.02 116.26 81.90 118.08 82.09 C 119.56 82.23 120.75 81.17 122.01 80.57 C 122.16 80.90 122.45 81.55 122.60 81.88 C 120.32 83.23 117.12 84.16 115.07 81.90 M 114.69 77.43 C 117.10 77.53 119.53 77.54 121.95 77.43 C 120.90 73.48 115.99 73.86 114.69 77.43 Z" />
<path fill="#3172b9" opacity="1.00" d=" M 127.63 73.74 C 129.53 72.69 131.59 73.88 133.45 74.41 C 133.80 74.10 134.48 73.48 134.83 73.18 C 134.76 77.07 135.13 81.00 134.50 84.87 C 134.26 86.43 132.62 87.08 131.55 88.00 L 128.65 88.00 C 127.34 87.38 126.04 86.73 124.75 86.07 C 125.09 85.92 125.75 85.61 126.08 85.46 C 127.68 85.92 129.29 87.12 131.02 86.61 C 133.24 86.21 133.15 83.50 134.04 81.92 C 131.90 82.40 129.50 83.78 127.39 82.45 C 124.02 80.76 124.21 75.26 127.63 73.74 M 128.20 74.97 C 125.80 76.24 125.80 80.11 128.19 81.41 C 130.52 82.84 133.90 80.79 133.51 78.02 C 133.64 75.39 130.39 73.53 128.20 74.97 Z" />
<path fill="#3172b9" opacity="1.00" d=" M 137.56 75.40 C 138.90 72.81 143.33 72.36 144.87 74.97 C 145.51 77.72 145.18 80.60 145.28 83.40 C 144.86 83.11 144.02 82.52 143.60 82.23 C 142.18 82.85 140.56 83.88 139.00 82.98 C 136.74 82.28 136.81 78.72 138.96 77.91 C 140.65 77.25 142.51 77.27 144.28 76.98 C 143.48 73.58 139.99 74.71 137.56 75.40 M 138.66 80.04 C 138.72 82.65 141.64 81.93 143.35 81.61 C 143.53 80.77 143.89 79.10 144.07 78.26 C 142.25 78.61 139.67 78.03 138.66 80.04 Z" />
<path fill="#3172b9" opacity="1.00" d=" M 172.50 73.71 C 175.87 72.02 180.26 75.01 179.66 78.80 C 179.55 82.33 175.26 84.42 172.27 82.78 C 168.65 81.12 168.78 75.17 172.50 73.71 M 172.25 75.36 C 170.10 77.30 170.97 81.68 174.04 82.06 C 176.80 82.66 178.99 79.56 178.06 77.06 C 177.52 74.58 174.06 73.64 172.25 75.36 Z" />
<path fill="#3172b9" opacity="1.00" d=" M 187.28 72.87 C 189.92 75.42 186.16 81.64 190.93 82.13 C 195.11 81.34 193.37 76.10 193.88 73.09 C 194.53 73.57 195.27 74.08 195.10 75.03 C 195.22 77.73 195.09 80.44 195.11 83.14 C 192.79 81.61 189.71 84.73 187.73 82.20 C 186.32 79.36 187.11 75.93 187.28 72.87 Z" />
<path fill="#3172b9" opacity="1.00" d=" M 205.32 73.48 C 205.65 73.49 206.30 73.51 206.62 73.52 C 206.59 76.56 206.84 79.62 206.51 82.64 C 206.23 82.85 205.65 83.27 205.37 83.47 C 205.24 80.14 205.29 76.81 205.32 73.48 Z" />
<path fill="#3172b9" opacity="1.00" d=" M 212.45 73.63 C 215.85 72.10 220.04 75.15 219.40 78.87 C 219.24 82.64 214.38 84.62 211.44 82.43 C 208.30 80.38 208.85 74.87 212.45 73.63 M 212.25 75.16 C 209.77 76.99 210.63 81.81 213.91 82.08 C 216.59 82.57 218.64 79.63 217.85 77.19 C 217.39 74.76 214.16 73.66 212.25 75.16 Z" />
<path fill="#3172b9" opacity="1.00" d=" M 221.89 72.90 C 222.33 73.38 222.77 73.85 223.21 74.33 C 225.56 73.16 228.35 72.76 229.99 75.34 L 230.00 74.22 L 230.00 83.98 C 227.97 81.32 229.20 77.82 227.92 74.94 C 226.40 74.04 224.04 74.54 223.56 76.40 C 223.10 78.86 223.18 81.40 222.85 83.89 C 221.15 80.48 222.05 76.55 221.89 72.90 Z" />
<path fill="#3172b9" opacity="1.00" d=" M 0.00 74.73 C 28.65 74.73 57.29 74.73 85.94 74.74 C 85.94 75.42 85.94 76.78 85.95 77.46 C 57.30 77.47 28.65 77.46 0.00 77.46 L 0.00 74.73 Z" />
</g>
</svg>
