<?xml version="1.0" encoding="UTF-8" ?>
<!DOCTYPE svg PUBLIC "-//W3C//DTD SVG 1.1//EN" "http://www.w3.org/Graphics/SVG/1.1/DTD/svg11.dtd">
<svg width="172pt" height="128pt" viewBox="0 0 172 128" version="1.1" xmlns="http://www.w3.org/2000/svg">
<g id="#3172b9ff">
<path fill="#3172b9" opacity="1.00" d=" M 53.68 0.00 L 56.20 0.00 C 68.13 0.14 79.16 6.28 86.93 15.08 C 94.47 6.45 105.19 0.50 116.78 0.00 L 120.98 0.00 C 133.41 0.73 145.34 7.38 152.24 17.79 C 159.23 27.77 160.93 40.92 157.52 52.54 C 161.34 52.62 165.18 52.28 168.98 52.74 C 170.48 53.06 171.19 54.51 172.00 55.65 L 172.00 57.70 C 171.32 59.36 170.03 61.09 168.02 60.99 C 163.26 61.22 158.49 60.99 153.72 61.05 C 151.73 64.20 149.46 67.17 146.80 69.79 C 128.34 88.32 109.82 106.79 91.38 125.34 C 90.36 126.35 89.22 127.24 88.00 128.00 L 85.90 128.00 C 83.24 126.46 81.27 124.07 79.11 121.94 C 61.77 104.58 44.44 87.21 27.11 69.85 C 24.84 67.58 22.85 65.07 20.98 62.48 C 15.36 62.50 9.74 62.66 4.13 62.46 C 2.17 62.55 0.87 60.95 0.00 59.40 L 0.00 57.38 C 0.66 55.73 1.91 54.01 3.89 54.04 C 8.19 53.76 12.51 54.01 16.83 53.95 C 12.55 41.29 14.64 26.56 22.92 15.97 C 30.12 6.41 41.70 0.37 53.68 0.00 M 28.66 22.58 C 22.04 32.15 21.43 45.26 26.80 55.53 C 36.69 55.53 46.59 55.55 56.48 55.52 C 60.04 48.03 63.48 40.48 67.10 33.02 C 68.01 30.49 71.99 30.98 72.44 33.58 C 77.70 48.02 82.86 62.51 88.11 76.96 C 92.50 64.72 96.72 52.40 101.20 40.20 C 101.84 38.10 105.17 37.80 106.11 39.80 C 108.51 44.49 110.46 49.39 112.73 54.14 C 124.40 54.13 136.08 54.14 147.75 54.13 C 149.79 49.36 150.98 44.18 150.66 38.97 C 150.20 26.88 142.20 15.51 130.99 10.98 C 120.88 6.69 108.58 8.18 99.81 14.80 C 96.01 17.61 93.04 21.36 89.50 24.48 C 87.68 26.14 84.82 25.41 83.37 23.62 C 78.25 18.39 73.06 12.73 65.87 10.43 C 52.58 5.38 36.42 10.72 28.66 22.58 M 60.05 60.99 C 50.23 61.18 40.41 60.98 30.60 61.09 C 49.19 80.13 68.17 98.80 86.93 117.68 C 104.23 100.38 121.49 83.05 138.79 65.75 C 140.76 63.83 142.65 61.81 144.42 59.70 C 133.91 59.63 123.40 59.67 112.89 59.68 C 111.42 59.64 109.73 59.71 108.60 58.58 C 106.90 55.45 105.65 52.10 104.09 48.90 C 99.58 61.46 95.26 74.10 90.65 86.63 C 89.64 89.27 85.59 88.43 85.24 85.77 C 79.91 71.06 74.63 56.33 69.31 41.61 C 66.18 48.05 63.36 54.64 60.05 60.99 Z" />
</g>
</svg>
