<?xml version="1.0" encoding="UTF-8" ?>
<!DOCTYPE svg PUBLIC "-//W3C//DTD SVG 1.1//EN" "http://www.w3.org/Graphics/SVG/1.1/DTD/svg11.dtd">
<svg width="128pt" height="128pt" viewBox="0 0 128 128" version="1.1" xmlns="http://www.w3.org/2000/svg">
<g id="#3172b9ff">
<path fill="#3172b9" opacity="1.00" d=" M 69.11 0.00 L 71.98 0.00 C 75.04 0.69 77.20 3.08 78.33 5.91 C 93.09 10.83 108.02 15.28 122.80 20.13 C 125.74 21.11 127.93 23.99 128.00 27.10 L 128.00 28.97 C 121.36 51.02 114.10 72.91 107.26 94.91 C 106.56 97.54 108.46 100.32 107.19 102.93 C 106.66 104.99 104.93 106.32 103.31 107.52 C 101.58 112.53 100.15 117.64 98.42 122.64 C 97.46 125.45 94.85 127.71 91.86 128.00 L 89.11 128.00 C 80.75 125.35 72.36 122.77 64.04 120.01 C 55.67 122.73 47.27 125.37 38.86 128.00 L 36.09 128.00 C 32.43 127.64 29.79 124.44 29.01 121.02 C 19.42 90.28 9.35 59.67 0.00 28.87 L 0.00 27.03 C 0.08 23.54 2.82 20.61 6.13 19.79 C 27.13 13.24 48.03 6.31 69.11 0.00 M 67.12 6.34 C 47.16 12.72 27.17 18.98 7.21 25.34 C 5.21 26.09 5.27 28.43 6.08 30.05 C 15.83 60.60 25.37 91.22 35.21 121.75 C 35.70 121.96 36.67 122.39 37.15 122.61 C 58.14 116.14 79.03 109.36 99.98 102.78 C 101.79 102.43 102.59 100.43 101.73 98.83 C 92.39 69.30 82.99 39.78 73.68 10.23 C 73.12 8.83 73.08 7.07 71.81 6.07 C 70.41 4.82 68.62 6.05 67.12 6.34 M 80.34 12.58 C 81.34 15.49 81.82 18.64 83.34 21.35 C 91.79 24.01 100.25 26.67 108.69 29.39 C 111.82 30.41 113.05 34.07 111.86 36.99 C 107.94 49.30 104.06 61.62 100.14 73.93 C 100.49 78.31 102.76 82.41 103.72 86.73 C 110.12 68.28 115.58 49.47 121.67 30.91 C 122.41 29.07 123.23 26.25 120.76 25.33 C 107.29 21.07 93.84 16.73 80.34 12.58 M 85.20 27.46 C 88.62 39.98 93.14 52.28 96.73 64.79 C 97.28 64.39 97.61 63.83 97.71 63.14 C 100.67 53.63 103.69 44.14 106.72 34.65 C 99.60 32.12 92.13 30.44 85.20 27.46 M 75.91 116.27 C 75.12 116.69 73.60 116.64 73.34 117.66 C 79.37 118.48 84.97 121.12 90.85 122.60 C 91.34 122.39 92.30 121.97 92.78 121.76 C 94.13 117.81 95.47 113.86 96.53 109.84 C 89.62 111.85 82.79 114.16 75.91 116.27 Z" />
<path fill="#3172b9" opacity="1.00" d=" M 61.04 16.13 C 63.96 14.97 67.59 16.16 68.63 19.28 C 75.22 39.83 81.67 60.42 88.21 80.99 C 89.66 83.94 88.03 87.90 84.78 88.72 C 70.89 93.14 57.00 97.57 43.08 101.92 C 40.30 102.98 36.61 101.80 35.75 98.74 C 29.18 78.36 22.84 57.90 16.28 37.51 C 15.59 35.76 15.79 33.87 16.00 32.04 C 17.18 30.86 18.33 29.51 20.04 29.13 C 33.70 24.80 47.38 20.48 61.04 16.13 M 21.28 34.63 C 27.26 53.43 33.18 72.24 39.16 91.04 C 39.84 92.97 40.09 95.12 41.43 96.75 C 55.17 92.15 68.98 87.69 82.89 83.65 C 82.82 81.97 82.16 80.41 81.66 78.83 C 75.50 59.66 69.58 40.41 63.33 21.27 C 49.34 25.79 35.29 30.15 21.28 34.63 Z" />
<path fill="#3172b9" opacity="1.00" d=" M 48.99 49.75 C 52.58 44.57 61.00 43.91 64.95 49.00 C 68.65 52.97 67.39 59.15 64.12 62.98 C 61.17 66.58 59.66 73.25 53.94 72.97 C 49.42 71.34 44.98 69.46 40.57 67.55 C 35.53 65.11 34.23 57.90 37.38 53.50 C 39.86 49.87 44.84 48.09 48.99 49.75 M 54.93 51.81 C 53.00 52.89 53.29 55.94 50.94 56.47 C 48.77 56.76 47.21 54.21 44.92 54.93 C 41.09 55.11 39.78 60.97 43.35 62.67 C 47.14 64.22 50.86 65.98 54.78 67.16 C 56.96 63.57 59.44 60.15 61.47 56.47 C 62.92 52.92 57.87 49.22 54.93 51.81 Z" />
</g>
</svg>
