<?xml version="1.0" encoding="UTF-8" ?>
<!DOCTYPE svg PUBLIC "-//W3C//DTD SVG 1.1//EN" "http://www.w3.org/Graphics/SVG/1.1/DTD/svg11.dtd">
<svg width="136pt" height="132pt" viewBox="0 0 136 132" version="1.1" xmlns="http://www.w3.org/2000/svg">
<g id="#3172b9ff">
<path fill="#3172b9" opacity="1.00" d=" M 97.62 0.00 L 102.22 0.00 C 119.81 0.86 135.18 15.99 136.00 33.64 L 136.00 38.04 C 135.01 55.98 119.01 71.36 101.05 71.57 C 82.26 71.35 63.47 70.78 44.69 70.43 C 39.55 70.39 34.28 69.77 29.26 71.19 C 21.93 73.14 15.60 78.46 12.40 85.33 C 9.38 91.71 9.13 99.35 11.84 105.87 C 15.22 114.51 23.62 120.91 32.85 121.92 C 41.89 123.13 51.37 119.14 56.87 111.87 C 60.88 106.86 62.48 100.36 62.34 94.02 C 62.63 90.83 61.84 87.33 63.32 84.38 C 65.42 80.73 71.69 81.80 72.31 86.02 C 72.49 94.87 72.64 104.26 68.29 112.28 C 62.77 123.40 51.22 130.81 38.96 132.00 L 33.73 132.00 C 26.26 131.37 18.94 128.66 13.15 123.85 C 5.44 117.68 0.69 108.18 0.00 98.37 L 0.00 93.95 C 1.00 76.04 16.98 60.63 34.95 60.44 C 56.66 60.66 78.37 61.42 100.08 61.72 C 112.70 61.89 124.39 51.66 125.82 39.11 C 127.07 30.35 123.33 21.14 116.39 15.67 C 109.47 9.98 99.54 8.33 91.13 11.41 C 81.95 14.60 74.87 23.28 73.94 33.00 C 73.29 37.63 74.09 42.39 73.10 46.97 C 71.63 50.98 65.24 50.92 63.89 46.86 C 63.18 42.97 63.83 38.96 63.81 35.02 C 64.03 24.19 69.55 13.67 78.25 7.24 C 83.82 2.96 90.68 0.67 97.62 0.00 Z" />
</g>
</svg>
