<?xml version="1.0" encoding="UTF-8" ?>
<!DOCTYPE svg PUBLIC "-//W3C//DTD SVG 1.1//EN" "http://www.w3.org/Graphics/SVG/1.1/DTD/svg11.dtd">
<svg width="130pt" height="130pt" viewBox="0 0 130 130" version="1.1" xmlns="http://www.w3.org/2000/svg">
<g id="#3172b9ff">
<path fill="#3172b9" opacity="1.00" d=" M 71.29 0.00 L 73.53 0.00 C 76.39 0.52 79.18 1.70 81.22 3.83 C 89.57 12.14 97.88 20.49 106.22 28.81 C 109.47 31.92 110.98 36.75 109.79 41.13 C 108.74 45.92 104.49 48.88 101.31 52.24 C 98.67 55.15 94.79 56.39 90.94 56.35 C 88.98 58.18 87.10 60.07 85.24 61.99 C 98.86 75.63 112.51 89.24 126.12 102.89 C 128.41 105.08 129.68 108.11 130.00 111.23 L 130.00 113.34 C 129.44 118.95 124.81 122.52 121.11 126.20 C 119.11 128.29 116.38 129.44 113.58 130.00 L 110.55 130.00 C 107.70 129.46 104.93 128.25 102.90 126.13 C 89.24 112.52 75.63 98.85 61.98 85.24 C 60.08 87.09 58.19 88.96 56.37 90.90 C 56.93 98.14 50.88 102.80 46.18 107.24 C 41.30 111.54 33.17 111.00 28.80 106.21 C 20.62 98.06 12.47 89.88 4.29 81.72 C 1.99 79.60 0.57 76.72 0.00 73.66 L 0.00 70.63 C 0.77 64.83 5.65 61.22 9.49 57.38 C 12.04 54.79 15.70 53.86 19.24 53.84 C 30.72 42.50 42.18 31.11 53.47 19.60 C 54.28 16.31 54.34 12.53 56.97 9.97 C 61.06 5.85 64.95 0.36 71.29 0.00 M 64.09 16.14 C 62.41 17.83 63.84 20.05 64.86 21.62 C 50.45 36.09 35.93 50.45 21.58 64.97 C 20.72 64.42 19.91 63.80 18.99 63.36 C 16.08 62.86 14.52 65.94 12.58 67.52 C 10.61 69.22 7.80 72.18 10.52 74.59 C 18.99 83.09 27.41 91.66 36.02 100.01 C 39.62 102.53 42.20 97.62 44.62 95.66 C 47.11 94.03 47.63 90.67 45.23 88.66 C 59.71 74.18 74.21 59.73 88.65 45.21 C 90.00 46.31 91.91 47.66 93.62 46.43 C 95.94 44.51 98.03 42.31 100.06 40.09 C 101.28 38.76 100.88 36.61 99.57 35.49 C 91.58 27.44 83.52 19.46 75.53 11.41 C 74.34 10.20 72.82 8.83 70.99 9.60 C 68.35 11.38 66.27 13.86 64.09 16.14 M 78.34 68.70 C 75.25 72.14 71.83 75.25 68.64 78.60 C 82.12 92.05 95.58 105.52 109.04 118.99 C 110.19 120.36 112.46 121.32 113.96 119.92 C 116.22 117.88 118.54 115.80 120.35 113.33 C 121.33 111.18 119.43 109.40 118.02 108.05 C 104.72 95.01 91.86 81.50 78.34 68.70 Z" />
</g>
</svg>
